<svg width="101" height="101" viewBox="0 0 101 101" fill="none" xmlns="http://www.w3.org/2000/svg">
<path d="M59.23 45.6829L54.5235 40.9764L31.8961 63.6038L36.6252 68.3329L40.0872 65.233C39.5894 67.0583 39.5517 68.8911 39.9741 70.7314C40.3965 72.5718 41.377 74.2613 42.9157 75.8C44.575 77.4593 46.4455 78.7114 48.5273 79.5561C50.6241 80.3858 52.7888 80.8006 55.0213 80.8006C57.2388 80.7856 59.3809 80.3632 61.4475 79.5335C63.5292 78.6888 65.4073 77.4292 67.0817 75.7547C68.6958 74.1406 69.9102 72.3229 70.7248 70.3015C71.5544 68.2651 71.9693 66.1758 71.9693 64.0337C71.9693 61.8917 71.5695 59.8175 70.77 57.8112C69.9705 55.7747 68.7637 53.9494 67.1496 52.3354C65.5054 50.6911 63.6801 49.6201 61.6738 49.1223C59.6675 48.5943 57.6687 48.4962 55.6775 48.8281L59.23 45.6829ZM47.5769 71.365C46.2494 70.0375 45.4122 68.5517 45.0653 66.9074C44.7334 65.2481 44.8541 63.5887 45.4273 61.9294C45.9854 60.2549 46.9433 58.7389 48.301 57.3813C49.6737 56.0085 51.1973 55.0431 52.8717 54.485C54.5461 53.9268 56.2055 53.8212 57.8497 54.1682C59.494 54.485 60.9799 55.3071 62.3074 56.6346C63.6197 57.947 64.4871 59.4781 64.9095 61.2279C65.3319 62.9778 65.3017 64.7276 64.819 66.4775C64.3363 68.2273 63.4161 69.7811 62.0584 71.1387C60.6857 72.5115 59.1169 73.4316 57.3519 73.8993C55.587 74.3367 53.8372 74.3518 52.1024 73.9445C50.3676 73.5071 48.8591 72.6472 47.5769 71.365Z" fill="#F43F5E"/>
<path d="M54.2605 40.9377L58.967 45.6442L36.3396 68.2716L31.6104 63.5425L34.7104 60.0805C32.8851 60.5783 31.0523 60.616 29.2119 60.1936C27.3716 59.7713 25.682 58.7907 24.1434 57.2521C22.484 55.5927 21.232 53.7222 20.3872 51.6405C19.5576 49.5437 19.1427 47.379 19.1427 45.1464C19.1578 42.9289 19.5802 40.7868 20.4099 38.7202C21.2546 36.6385 22.5142 34.7604 24.1886 33.086C25.8027 31.4719 27.6205 30.2576 29.6418 29.443C31.6783 28.6133 33.7676 28.1985 35.9096 28.1985C38.0517 28.1985 40.1259 28.5982 42.1322 29.3977C44.1686 30.1972 45.9939 31.404 47.608 33.0181C49.2523 34.6624 50.3233 36.4876 50.8211 38.4939C51.3491 40.5002 51.4471 42.499 51.1153 44.4902L54.2605 40.9377ZM28.5783 52.5908C29.9058 53.9183 31.3917 54.7555 33.036 55.1025C34.6953 55.4343 36.3546 55.3137 38.014 54.7404C39.6884 54.1823 41.2044 53.2244 42.5621 51.8667C43.9348 50.494 44.9003 48.9704 45.4584 47.296C46.0165 45.6216 46.1221 43.9622 45.7752 42.318C45.4584 40.6737 44.6363 39.1878 43.3088 37.8604C41.9964 36.548 40.4653 35.6806 38.7154 35.2582C36.9656 34.8358 35.2157 34.866 33.4659 35.3487C31.716 35.8314 30.1623 36.7516 28.8046 38.1093C27.4319 39.482 26.5117 41.0508 26.0441 42.8158C25.6066 44.5807 25.5915 46.3306 25.9988 48.0653C26.4363 49.8001 27.2961 51.3086 28.5783 52.5908Z" fill="#F43F5E"/>
</svg>
